<svg width="89" height="78" viewBox="0 0 89 78" fill="none" xmlns="http://www.w3.org/2000/svg">
<path d="M72.2456 25.495C71.3162 25.1852 70.3867 24.8926 69.4573 24.6172C69.6122 23.9804 69.7499 23.3436 69.8876 22.7067C72.0046 12.4485 70.6105 4.20408 65.9117 1.48463C61.385 -1.11435 54.0011 1.5879 46.5312 8.09394C45.7911 8.73078 45.0682 9.40204 44.3797 10.0733C43.915 9.62579 43.4331 9.17829 42.9512 8.74799C35.1198 1.79444 27.2713 -1.13156 22.5724 1.60511C18.063 4.2213 16.7204 11.9838 18.6137 21.6912C18.8031 22.6551 19.0096 23.6017 19.2506 24.5656C18.149 24.8754 17.0647 25.2197 16.0492 25.5811C6.8581 28.7653 0.265991 33.7911 0.265991 38.9891C0.265991 44.3591 7.28839 49.7464 16.8409 53.0167C17.6155 53.2748 18.39 53.533 19.1817 53.7568C18.9235 54.7895 18.6998 55.805 18.4933 56.8549C16.686 66.4074 18.0974 73.9806 22.6069 76.5796C27.254 79.2646 35.0682 76.5107 42.6758 69.8498C43.2782 69.3162 43.8806 68.7654 44.483 68.1802C45.2403 68.9203 46.0321 69.626 46.8238 70.3145C54.1905 76.6484 61.471 79.213 65.9633 76.614C70.6105 73.929 72.1251 65.7878 70.163 55.8738C70.0081 55.1165 69.836 54.342 69.6466 53.5502C70.1974 53.3953 70.731 53.2232 71.2645 53.0511C81.1957 49.7636 88.3902 44.4452 88.3902 38.9891C88.3902 33.7739 81.6088 28.7136 72.2456 25.495ZM48.9581 10.8823C55.3609 5.30564 61.3333 3.11974 64.0528 4.68601C66.9616 6.35556 68.0804 13.1026 66.2559 21.9666C66.1354 22.5518 66.0149 23.1198 65.86 23.6878C62.039 22.8272 58.1664 22.2076 54.2765 21.8634C52.039 18.662 49.5949 15.5983 46.9443 12.7239C47.6156 12.0871 48.2696 11.4847 48.9581 10.8823ZM29.0441 47.922C29.9219 49.4194 30.8169 50.9168 31.7635 52.3798C29.0785 52.0872 26.4107 51.6569 23.7773 51.0889C24.5346 48.6104 25.4812 46.0459 26.5828 43.4297C27.3745 44.9443 28.1835 46.4418 29.0441 47.922ZM23.8289 27.2162C26.3074 26.6654 28.9408 26.2179 31.6775 25.8737C30.7652 27.3023 29.8702 28.7653 29.0269 30.2455C28.1835 31.7085 27.3573 33.2059 26.5828 34.7205C25.4984 32.156 24.5862 29.6431 23.8289 27.2162ZM28.5449 39.0751C29.6809 36.6999 30.9201 34.3763 32.2282 32.0871C33.5363 29.798 34.9477 27.5777 36.4279 25.3918C39.0097 25.2024 41.6431 25.0992 44.3281 25.0992C47.0132 25.0992 49.6638 25.2024 52.2283 25.3918C53.6913 27.5605 55.0855 29.7808 56.4108 32.0527C57.7361 34.3247 58.9753 36.6483 60.1457 39.0063C58.9925 41.3815 57.7533 43.7223 56.428 46.0287C55.1199 48.3178 53.7257 50.5382 52.2627 52.7413C49.6982 52.9306 47.0304 53.0167 44.3281 53.0167C41.6259 53.0167 39.0097 52.9306 36.4795 52.7757C34.9821 50.5898 33.5708 48.3523 32.2455 46.0631C30.9202 43.7739 29.6981 41.4504 28.5449 39.0751ZM59.6294 47.8876C60.5072 46.3729 61.3333 44.8411 62.1423 43.292C63.2439 45.7877 64.2077 48.3178 65.0511 50.9168C62.3833 51.5192 59.681 51.984 56.9616 52.2938C57.891 50.848 58.7688 49.3678 59.6294 47.8876ZM62.1079 34.7205C61.2989 33.2059 60.4728 31.6913 59.6122 30.2111C58.7688 28.7481 57.891 27.3023 56.9788 25.8737C59.7499 26.2179 62.4005 26.6827 64.879 27.2506C64.0872 29.798 63.1578 32.2765 62.1079 34.7205ZM44.3625 15.3573C46.1698 17.3195 47.8737 19.3849 49.4572 21.5191C46.0493 21.3642 42.6242 21.3642 39.2162 21.5191C40.903 19.2988 42.6414 17.2334 44.3625 15.3573ZM24.3969 4.8065C27.2885 3.11974 33.7085 5.52939 40.4727 11.5191C40.903 11.8977 41.3333 12.3108 41.7808 12.7239C39.1129 15.5983 36.6517 18.662 34.3969 21.8634C30.5071 22.2076 26.6516 22.81 22.8306 23.6534C22.6069 22.7756 22.4175 21.8806 22.2282 20.9856C20.6103 12.6551 21.6774 6.37277 24.3969 4.8065ZM20.18 50.1767C19.4571 49.9702 18.7514 49.7464 18.0457 49.5055C14.3796 48.3523 10.2144 46.5278 7.20233 44.1354C5.46394 42.9306 4.29354 41.0717 3.96652 38.9891C3.96652 35.8393 9.40544 31.8118 17.254 29.0751C18.2351 28.7309 19.2334 28.421 20.2316 28.1284C21.402 31.8634 22.8134 35.5295 24.4485 39.0751C22.7962 42.6724 21.3676 46.3901 20.18 50.1767ZM40.2489 67.0443C37.409 69.6432 34.1215 71.7086 30.5415 73.12C28.631 74.0322 26.4279 74.1183 24.4657 73.3438C21.7291 71.7603 20.5931 65.6845 22.1421 57.5089C22.3315 56.5451 22.538 55.5812 22.779 54.6346C26.6344 55.4607 30.5243 56.0287 34.4658 56.3213C36.7377 59.5399 39.2334 62.6208 41.9013 65.5124C41.3505 66.046 40.7997 66.5623 40.2489 67.0443ZM44.4658 62.8618C42.7102 60.9685 40.9546 58.8687 39.2506 56.6139C40.903 56.6828 42.6069 56.7172 44.3281 56.7172C46.1009 56.7172 47.8393 56.6828 49.5605 56.5967C47.977 58.7826 46.273 60.8652 44.4658 62.8618ZM66.9616 68.0253C66.8067 70.1252 65.774 72.0873 64.1217 73.4126C61.385 74.9961 55.5502 72.9307 49.2507 67.5262C48.5278 66.9066 47.8049 66.2353 47.0648 65.5468C49.6982 62.638 52.125 59.5571 54.3282 56.3213C58.2696 55.9943 62.1939 55.3919 66.0666 54.5141C66.2387 55.2198 66.3936 55.9254 66.5313 56.6139C67.3747 60.3317 67.5124 64.2043 66.9616 68.0253ZM70.0941 49.5227C69.6122 49.6776 69.1303 49.8325 68.6311 49.9702C67.4263 46.218 65.9461 42.5519 64.2421 38.9891C65.8945 35.4779 67.2886 31.8634 68.459 28.1629C69.354 28.421 70.2146 28.6964 71.0408 28.9718C79.0615 31.7257 84.6897 35.8221 84.6897 38.9546C84.6897 42.3281 78.6828 46.6827 70.0941 49.5227ZM44.3281 46.9409C48.6827 46.9409 52.2111 43.4125 52.2111 39.0579C52.2111 34.7033 48.6827 31.1749 44.3281 31.1749C39.9735 31.1749 36.4451 34.7033 36.4451 39.0579C36.4451 43.4125 39.9735 46.9409 44.3281 46.9409Z" fill="url(#paint0_linear_1_121)"/>
<defs>
<linearGradient id="paint0_linear_1_121" x1="0.265991" y1="39.0621" x2="102.431" y2="39.0621" gradientUnits="userSpaceOnUse">
<stop stop-color="#D6409F"/>
<stop offset="1" stop-color="#E54D2E"/>
</linearGradient>
</defs>
</svg>
